<svg xmlns="http://www.w3.org/2000/svg" viewBox="0 0 441.4 387.6"><path d="M146.8 214.2c-2.1-3.4-4.8-5.1-8.2-5.1-3.4 0-6.1 1.7-8.2 5.1-2.1 3.4-3.1 8.7-3.2 15.7 0 7.2 1 12.6 3.1 16.1s4.8 5.2 8.3 5.2c3.4 0 6.2-1.7 8.3-5.2 2.1-3.5 3.1-8.8 3.1-16.1-.1-7.1-1.2-12.3-3.2-15.7zm0 0c-2.1-3.4-4.8-5.1-8.2-5.1-3.4 0-6.1 1.7-8.2 5.1-2.1 3.4-3.1 8.7-3.2 15.7 0 7.2 1 12.6 3.1 16.1s4.8 5.2 8.3 5.2c3.4 0 6.2-1.7 8.3-5.2 2.1-3.5 3.1-8.8 3.1-16.1-.1-7.1-1.2-12.3-3.2-15.7zM.5 167.1v110.2c0 60.9 49.4 110.2 110.2 110.2S221 338.2 221 277.3V167.1H.5zm104.2 175.4H56.3v-11.4l23.9-20.9c2.3-2 4.4-4.1 6.2-6.5 1.5-1.9 2.2-4.2 2.2-6.6.1-2.4-.8-4.7-2.6-6.4-1.8-1.6-4.2-2.4-6.6-2.3-2.4-.1-4.8.8-6.6 2.5-1.8 1.8-2.7 4.3-2.5 6.9h-15c-.1-4 .9-8 3-11.5 2-3.3 5-5.9 8.4-7.5 4-1.8 8.3-2.7 12.7-2.6 4.4-.1 8.9.7 12.9 2.5 3.4 1.5 6.4 3.9 8.5 6.9 2 3.1 3.1 6.7 3 10.4 0 2.5-.5 5.1-1.5 7.4-1.4 3-3.2 5.7-5.4 8.1-3.4 3.8-7.1 7.4-11 10.7l-7.8 7.2v.4h26.5l.1 12.7zm0-80H56.3v-11.4l23.9-20.9c2.3-2 4.4-4.1 6.2-6.5 1.5-1.9 2.2-4.2 2.2-6.6.1-2.4-.8-4.7-2.6-6.4-1.8-1.6-4.2-2.4-6.6-2.3-2.4-.1-4.8.8-6.6 2.5-1.8 1.8-2.7 4.3-2.5 6.9h-15c-.1-4 .9-8 3-11.5 2-3.3 5-5.9 8.4-7.5 4-1.8 8.3-2.7 12.7-2.6 4.4-.1 8.9.7 12.9 2.5 3.4 1.5 6.4 3.9 8.5 6.9 2 3.1 3.1 6.7 3 10.4 0 2.5-.5 5.1-1.5 7.4-1.4 3-3.2 5.7-5.4 8.1-3.4 3.8-7.1 7.4-11 10.7l-7.8 7.2v.4h26.5l.1 12.7zm46 80h-15.8v-50.7h-.4l-14.6 9v-13.7l16.1-10h14.7v65.4zm12.1-94.1c-2 4.8-5.3 8.8-9.6 11.7-9.1 5.4-20.4 5.4-29.6 0-4.3-2.9-7.6-7-9.6-11.7-2.2-5.1-3.3-11.3-3.3-18.4 0-10.8 2.5-19.1 7.4-24.9s11.7-8.8 20.2-8.8c5.2-.1 10.3 1.2 14.8 3.9 4.3 2.8 7.6 6.8 9.6 11.5 2.2 5 3.3 11.1 3.3 18.3.2 7.1-1 13.2-3.2 18.4zM138.5 209c-3.4 0-6.1 1.7-8.2 5.1s-3.1 8.7-3.2 15.7c0 7.2 1 12.6 3.1 16.1s4.8 5.2 8.3 5.2c3.4 0 6.2-1.7 8.3-5.2 2.1-3.5 3.1-8.8 3.1-16.1 0-7.1-1.1-12.3-3.2-15.7s-4.8-5.1-8.2-5.1zm8.3 5.1c-2.1-3.4-4.8-5.1-8.2-5.1s-6.1 1.7-8.2 5.1c-2.1 3.4-3.1 8.7-3.2 15.7 0 7.2 1 12.6 3.1 16.1s4.8 5.2 8.3 5.2c3.4 0 6.2-1.7 8.3-5.2 2.1-3.5 3.1-8.8 3.1-16.1-.1-7-1.2-12.2-3.2-15.7zm0 0c-2.1-3.4-4.8-5.1-8.2-5.1s-6.1 1.7-8.2 5.1c-2.1 3.4-3.1 8.7-3.2 15.7 0 7.2 1 12.6 3.1 16.1s4.8 5.2 8.3 5.2c3.4 0 6.2-1.7 8.3-5.2 2.1-3.5 3.1-8.8 3.1-16.1-.1-7-1.2-12.2-3.2-15.7zm74.1 173.5h220.5L331.1 277.3l110.2-110.2H220.9l110.2 110.2-110.2 110.3zM75 101.6c-4.2 3.3-9.6 5-16.1 5-8.7 0-15.7-3.1-20.8-9.4-5.1-6.3-7.7-15.5-7.8-27.7 0-11.7 2.6-20.8 7.7-27.3s12.1-9.8 21-9.8c6.8 0 12.2 1.8 16.4 5.5s6.7 8.5 7.4 14.7h30c-1-9.8-3.9-18.1-8.8-25-4.9-6.8-11.4-12.3-19.1-15.8-8.4-3.7-17.5-5.6-26.6-5.4-10.3-.1-20.5 2.4-29.6 7.3-8.9 5-16.2 12.4-20.9 21.4C2.6 44.4 0 55.9 0 69.5s2.5 25 7.6 34.3c4.7 9 11.9 16.5 20.8 21.4 9.1 5 19.4 7.5 29.8 7.4 7.7.1 15.3-1.2 22.4-3.9 6.2-2.4 11.8-5.9 16.7-10.3 4.4-4.1 8.1-9 10.8-14.4 2.5-5 4.1-10.5 4.7-16.1l-30-.2c-.7 5.5-3.5 10.4-7.8 13.9zm110.6-62.8l-17 63.5h-1l-17-63.5h-30.9l31.6 92.1h33.6l31.6-92.2-30.9.1zm63.2-34.7c-6-5.4-15.2-5.4-21.3 0-2.9 2.5-4.5 6.1-4.4 9.9 0 3.8 1.6 7.4 4.4 9.9 6 5.5 15.2 5.5 21.3 0 2.8-2.5 4.5-6.1 4.4-9.9.1-3.8-1.5-7.4-4.4-9.9zm-25.3 34.7v92.1h29.3V38.8h-29.3zM267.2 8v122.9h29.3V8h-29.3zm43.7 0v122.9h29.3V8h-29.3zm130.5 83.9v-7.3c0-10.1-1.9-18.7-5.7-25.7-3.6-6.8-9.1-12.3-15.8-15.9-7.1-3.7-15.1-5.6-23.2-5.4-9.3 0-17.3 2-24.2 6-6.8 3.9-12.3 9.7-15.9 16.7-3.8 7.1-5.6 15.5-5.6 25 0 14.8 4.1 26.3 12.5 34.8s19.7 12.7 34.2 12.7c12.1 0 21.9-2.7 29.5-8.1 7.4-5.1 12.4-12.9 13.9-21.7l-26.9-.9c-1.1 3-3.2 5.5-5.9 7-3.1 1.7-6.5 2.5-10 2.4-5.6 0-10.1-1.7-13.3-5.2s-4.9-8-4.9-13.6v-.8h61.3zm-56.2-28.6c3.3-3.1 7.7-4.8 12.2-4.6 4.4-.2 8.8 1.5 12 4.5 3.1 3 4.9 7.2 4.8 11.6H380c.1-4.3 2-8.5 5.2-11.5z"/></svg>