<svg xmlns="http://www.w3.org/2000/svg" viewBox="0 0 720 132.6"><path d="M595.5 70.4c0 34.4-27.9 62.3-62.3 62.3s-62.3-27.9-62.3-62.3V8.1h124.5v62.3zm0 62.2H720l-62.3-62.3L720 8.1H595.5l62.3 62.3-62.3 62.2zM112.8 52.5h-30c-.8-6.2-3.2-11.1-7.4-14.7s-9.7-5.5-16.4-5.5c-9 0-16 3.2-21.1 9.7s-7.6 15.6-7.6 27.3c0 12.2 2.6 21.4 7.7 27.7 5.1 6.3 12.1 9.4 20.8 9.4 6.5 0 11.9-1.7 16.1-5C79.2 98 82 93 82.8 87.6l30 .2c-.6 5.6-2.2 11.1-4.8 16.1-2.7 5.4-6.3 10.3-10.8 14.4-4.8 4.5-10.5 8-16.6 10.3-7.2 2.7-14.8 4-22.4 3.9-10.4.2-20.7-2.4-29.8-7.3-8.9-5-16.1-12.4-20.8-21.5C2.5 94.4 0 83 0 69.5s2.6-25 7.7-34.4c4.8-9 12-16.4 20.9-21.4 9.1-4.9 19.2-7.5 29.6-7.3 9.2-.2 18.3 1.7 26.6 5.4 7.7 3.5 14.2 8.9 19.1 15.8 5 6.8 7.9 15.2 8.9 24.9zm103.7-13.7l-31.6 92.1h-33.6l-31.6-92.1h30.9l17 63.5h1l17-63.5h30.9zM238.2 28c-3.9.1-7.8-1.4-10.6-4.1-2.8-2.5-4.5-6.1-4.4-9.9 0-3.8 1.6-7.4 4.4-9.9 6-5.4 15.2-5.4 21.3 0 2.8 2.5 4.5 6.1 4.4 9.9 0 3.8-1.6 7.4-4.4 9.9-3 2.7-6.8 4.2-10.7 4.1zm-14.7 102.9V38.8h29.3v92.1h-29.3zM296.5 8v122.9h-29.3V8h29.3zm43.7 0v122.9h-29.3V8h29.3zm57.5 124.6c-14.5 0-25.9-4.2-34.2-12.7s-12.4-20-12.5-34.8c0-9.5 1.9-17.9 5.6-25 3.6-7 9.1-12.8 15.9-16.7 6.8-4 14.9-6 24.2-6 8.1-.1 16 1.8 23.2 5.5 6.7 3.6 12.2 9.2 15.8 15.9 3.8 7 5.7 15.6 5.7 25.7v7.3H380v.8c0 5.6 1.6 10.2 4.9 13.6s7.7 5.2 13.4 5.2c3.5.1 6.9-.8 10-2.4 2.8-1.5 4.9-4 5.9-7l26.9.8c-1.5 8.8-6.6 16.6-13.9 21.7-7.6 5.4-17.5 8.1-29.5 8.1zM380 74.9h34.1c.1-4.4-1.6-8.6-4.8-11.6-3.2-3.1-7.6-4.7-12-4.5-4.5-.1-8.9 1.5-12.2 4.6-3.2 2.9-5 7.1-5.1 11.5z"/></svg>